<?xml version="1.0" standalone="no"?>
<!DOCTYPE svg PUBLIC "-//W3C//DTD SVG 20010904//EN"
 "http://www.w3.org/TR/2001/REC-SVG-20010904/DTD/svg10.dtd">
<svg version="1.0" xmlns="http://www.w3.org/2000/svg"
 width="575.000000pt" height="295.000000pt" viewBox="0 0 575.000000 295.000000"
 preserveAspectRatio="xMidYMid meet">

<g transform="translate(0.000000,295.000000) scale(0.100000,-0.100000)"
fill="#000000" stroke="none">
<path d="M0 2505 l0 -445 265 0 265 0 0 445 0 445 -265 0 -265 0 0 -445z m520
0 l0 -435 -255 0 -255 0 0 435 0 435 255 0 255 0 0 -435z"/>
<path d="M580 2505 l0 -445 265 0 265 0 0 445 0 445 -265 0 -265 0 0 -445z
m520 0 l0 -435 -255 0 -255 0 0 435 0 435 255 0 255 0 0 -435z"/>
<path d="M1160 2505 l0 -445 265 0 265 0 0 445 0 445 -265 0 -265 0 0 -445z
m520 0 l0 -435 -255 0 -255 0 0 435 0 435 255 0 255 0 0 -435z"/>
<path d="M1740 2505 l0 -445 265 0 265 0 0 445 0 445 -265 0 -265 0 0 -445z
m520 0 l0 -435 -255 0 -255 0 0 435 0 435 255 0 255 0 0 -435z"/>
<path d="M2320 2505 l0 -445 265 0 265 0 0 445 0 445 -265 0 -265 0 0 -445z
m520 0 l0 -435 -255 0 -255 0 0 435 0 435 255 0 255 0 0 -435z"/>
<path d="M2900 2505 l0 -445 265 0 265 0 0 445 0 445 -265 0 -265 0 0 -445z
m520 0 l0 -435 -255 0 -255 0 0 435 0 435 255 0 255 0 0 -435z"/>
<path d="M3480 2505 l0 -445 265 0 265 0 0 445 0 445 -265 0 -265 0 0 -445z
m520 0 l0 -435 -255 0 -255 0 0 435 0 435 255 0 255 0 0 -435z"/>
<path d="M4060 2505 l0 -445 265 0 265 0 0 445 0 445 -265 0 -265 0 0 -445z
m520 0 l0 -435 -255 0 -255 0 0 435 0 435 255 0 255 0 0 -435z"/>
<path d="M4640 2505 l0 -445 265 0 265 0 0 445 0 445 -265 0 -265 0 0 -445z
m520 0 l0 -435 -255 0 -255 0 0 435 0 435 255 0 255 0 0 -435z"/>
<path d="M5220 2505 l0 -445 265 0 265 0 0 445 0 445 -265 0 -265 0 0 -445z
m520 0 l0 -435 -255 0 -255 0 0 435 0 435 255 0 255 0 0 -435z"/>
<path d="M320 1475 l0 -445 265 0 265 0 0 445 0 445 -265 0 -265 0 0 -445z
m520 0 l0 -435 -255 0 -255 0 0 435 0 435 255 0 255 0 0 -435z"/>
<path d="M900 1475 l0 -445 265 0 265 0 0 445 0 445 -265 0 -265 0 0 -445z
m520 0 l0 -435 -255 0 -255 0 0 435 0 435 255 0 255 0 0 -435z"/>
<path d="M1480 1475 l0 -445 265 0 265 0 0 445 0 445 -265 0 -265 0 0 -445z
m520 0 l0 -435 -255 0 -255 0 0 435 0 435 255 0 255 0 0 -435z"/>
<path d="M2060 1475 l0 -445 265 0 265 0 0 445 0 445 -265 0 -265 0 0 -445z
m520 0 l0 -435 -255 0 -255 0 0 435 0 435 255 0 255 0 0 -435z"/>
<path d="M2640 1475 l0 -445 265 0 265 0 0 445 0 445 -265 0 -265 0 0 -445z
m520 0 l0 -435 -255 0 -255 0 0 435 0 435 255 0 255 0 0 -435z"/>
<path d="M3220 1475 l0 -445 265 0 265 0 0 445 0 445 -265 0 -265 0 0 -445z
m520 0 l0 -435 -255 0 -255 0 0 435 0 435 255 0 255 0 0 -435z"/>
<path d="M3800 1475 l0 -445 265 0 265 0 0 445 0 445 -265 0 -265 0 0 -445z
m520 0 l0 -435 -255 0 -255 0 0 435 0 435 255 0 255 0 0 -435z"/>
<path d="M4380 1475 l0 -445 265 0 265 0 0 445 0 445 -265 0 -265 0 0 -445z
m520 0 l0 -435 -255 0 -255 0 0 435 0 435 255 0 255 0 0 -435z"/>
<path d="M4960 1475 l0 -445 265 0 265 0 0 445 0 445 -265 0 -265 0 0 -445z
m520 0 l0 -435 -255 0 -255 0 0 435 0 435 255 0 255 0 0 -435z"/>
<path d="M900 455 l0 -445 265 0 265 0 0 445 0 445 -265 0 -265 0 0 -445z
m520 0 l0 -435 -255 0 -255 0 0 435 0 435 255 0 255 0 0 -435z"/>
<path d="M1480 455 l0 -445 265 0 265 0 0 445 0 445 -265 0 -265 0 0 -445z
m520 0 l0 -435 -255 0 -255 0 0 435 0 435 255 0 255 0 0 -435z"/>
<path d="M2060 455 l0 -445 265 0 265 0 0 445 0 445 -265 0 -265 0 0 -445z
m520 0 l0 -435 -255 0 -255 0 0 435 0 435 255 0 255 0 0 -435z"/>
<path d="M2640 455 l0 -445 265 0 265 0 0 445 0 445 -265 0 -265 0 0 -445z
m520 0 l0 -435 -255 0 -255 0 0 435 0 435 255 0 255 0 0 -435z"/>
<path d="M3220 455 l0 -445 265 0 265 0 0 445 0 445 -265 0 -265 0 0 -445z
m520 0 l0 -435 -255 0 -255 0 0 435 0 435 255 0 255 0 0 -435z"/>
<path d="M3800 445 l0 -445 265 0 265 0 0 445 0 445 -265 0 -265 0 0 -445z
m520 0 l0 -435 -255 0 -255 0 0 435 0 435 255 0 255 0 0 -435z"/>
<path d="M4380 445 l0 -445 265 0 265 0 0 445 0 445 -265 0 -265 0 0 -445z
m520 0 l0 -435 -255 0 -255 0 0 435 0 435 255 0 255 0 0 -435z"/>
</g>
</svg>
