<?xml version="1.0" standalone="no"?>
<!DOCTYPE svg PUBLIC "-//W3C//DTD SVG 20010904//EN"
 "http://www.w3.org/TR/2001/REC-SVG-20010904/DTD/svg10.dtd">
<svg version="1.0" xmlns="http://www.w3.org/2000/svg"
 width="575.000000pt" height="295.000000pt" viewBox="0 0 575.000000 295.000000"
 preserveAspectRatio="xMidYMid meet">

<g transform="translate(0.000000,295.000000) scale(0.100000,-0.100000)"
fill="#ffffff" stroke="none">
<path id="spot1" d="M0 2505 l0 -445 265 0 265 0 0 445 0 445 -265 0 -265 0 0 -445z"/>
<path id="spot2" d="M580 2505 l0 -445 265 0 265 0 0 445 0 445 -265 0 -265 0 0 -445z"/>
<path id="spot3" d="M1160 2505 l0 -445 265 0 265 0 0 445 0 445 -265 0 -265 0 0 -445z"/>
<path id="spot4" d="M1740 2505 l0 -445 265 0 265 0 0 445 0 445 -265 0 -265 0 0 -445z"/>
<path id="spot5" d="M2320 2505 l0 -445 265 0 265 0 0 445 0 445 -265 0 -265 0 0 -445z"/>
<path id="spot6" d="M2900 2505 l0 -445 265 0 265 0 0 445 0 445 -265 0 -265 0 0 -445z"/>
<path id="spot7" d="M3480 2505 l0 -445 265 0 265 0 0 445 0 445 -265 0 -265 0 0 -445z"/>
<path id="spot8" d="M4060 2505 l0 -445 265 0 265 0 0 445 0 445 -265 0 -265 0 0 -445z"/>
<path id="spot9" d="M4640 2505 l0 -445 265 0 265 0 0 445 0 445 -265 0 -265 0 0 -445z"/>
<path id="spot10" d="M5220 2505 l0 -445 265 0 265 0 0 445 0 445 -265 0 -265 0 0 -445z"/>
<path id="spot11" d="M320 1475 l0 -445 265 0 265 0 0 445 0 445 -265 0 -265 0 0 -445z"/>
<path id="spot12" d="M900 1475 l0 -445 265 0 265 0 0 445 0 445 -265 0 -265 0 0 -445z"/>
<path id="spot13" d="M1480 1475 l0 -445 265 0 265 0 0 445 0 445 -265 0 -265 0 0 -445z"/>
<path id="spot14" d="M2060 1475 l0 -445 265 0 265 0 0 445 0 445 -265 0 -265 0 0 -445z"/>
<path id="spot15" d="M2640 1475 l0 -445 265 0 265 0 0 445 0 445 -265 0 -265 0 0 -445z"/>
<path id="spot16" d="M3220 1475 l0 -445 265 0 265 0 0 445 0 445 -265 0 -265 0 0 -445z"/>
<path id="spot17" d="M3800 1475 l0 -445 265 0 265 0 0 445 0 445 -265 0 -265 0 0 -445z"/>
<path id="spot18" d="M4380 1475 l0 -445 265 0 265 0 0 445 0 445 -265 0 -265 0 0 -445z"/>
<path id="spot19" d="M4960 1475 l0 -445 265 0 265 0 0 445 0 445 -265 0 -265 0 0 -445z"/>
<path id="spot20" d="M900 455 l0 -445 265 0 265 0 0 445 0 445 -265 0 -265 0 0 -445z"/>
<path id="spot21" d="M1480 455 l0 -445 265 0 265 0 0 445 0 445 -265 0 -265 0 0 -445z"/>
<path id="spot22" d="M2060 455 l0 -445 265 0 265 0 0 445 0 445 -265 0 -265 0 0 -445z"/>
<path id="spot23" d="M2640 455 l0 -445 265 0 265 0 0 445 0 445 -265 0 -265 0 0 -445z"/>
<path id="spot24" d="M3220 455 l0 -445 265 0 265 0 0 445 0 445 -265 0 -265 0 0 -445z"/>
<path id="spot25" d="M3800 445 l0 -445 265 0 265 0 0 445 0 445 -265 0 -265 0 0 -445z"/>
<path id="spot26" d="M4380 445 l0 -445 265 0 265 0 0 445 0 445 -265 0 -265 0 0 -445z"/>
</g>
</svg>
