<?xml version="1.0" standalone="no"?>
<!DOCTYPE svg PUBLIC "-//W3C//DTD SVG 20010904//EN"
 "http://www.w3.org/TR/2001/REC-SVG-20010904/DTD/svg10.dtd">
<svg version="1.0" xmlns="http://www.w3.org/2000/svg"
 width="575.000000pt" height="294.000000pt" viewBox="0 0 575.000000 294.000000"
 preserveAspectRatio="xMidYMid meet">

<g transform="translate(0.000000,294.000000) scale(0.100000,-0.100000)"
fill="#000000" stroke="none">
<path d="M0 2495 l0 -445 265 0 265 0 0 445 0 445 -265 0 -265 0 0 -445z"/>
<path d="M580 2495 l0 -445 265 0 265 0 0 445 0 445 -265 0 -265 0 0 -445z"/>
<path d="M1160 2495 l0 -445 265 0 265 0 0 445 0 445 -265 0 -265 0 0 -445z"/>
<path d="M1740 2495 l0 -445 265 0 265 0 0 445 0 445 -265 0 -265 0 0 -445z"/>
<path d="M2320 2495 l0 -445 265 0 265 0 0 445 0 445 -265 0 -265 0 0 -445z"/>
<path d="M2900 2495 l0 -445 265 0 265 0 0 445 0 445 -265 0 -265 0 0 -445z"/>
<path d="M3480 2495 l0 -445 265 0 265 0 0 445 0 445 -265 0 -265 0 0 -445z"/>
<path d="M4060 2495 l0 -445 265 0 265 0 0 445 0 445 -265 0 -265 0 0 -445z"/>
<path d="M4640 2495 l0 -445 265 0 265 0 0 445 0 445 -265 0 -265 0 0 -445z"/>
<path d="M5220 2495 l0 -445 265 0 265 0 0 445 0 445 -265 0 -265 0 0 -445z"/>
<path d="M320 1465 l0 -445 265 0 265 0 0 445 0 445 -265 0 -265 0 0 -445z"/>
<path d="M900 1465 l0 -445 265 0 265 0 0 445 0 445 -265 0 -265 0 0 -445z"/>
<path d="M1480 1465 l0 -445 265 0 265 0 0 445 0 445 -265 0 -265 0 0 -445z"/>
<path d="M2060 1465 l0 -445 265 0 265 0 0 445 0 445 -265 0 -265 0 0 -445z"/>
<path d="M2640 1465 l0 -445 265 0 265 0 0 445 0 445 -265 0 -265 0 0 -445z"/>
<path d="M3220 1465 l0 -445 265 0 265 0 0 445 0 445 -265 0 -265 0 0 -445z"/>
<path d="M3800 1465 l0 -445 265 0 265 0 0 445 0 445 -265 0 -265 0 0 -445z"/>
<path d="M4380 1465 l0 -445 265 0 265 0 0 445 0 445 -265 0 -265 0 0 -445z"/>
<path d="M4960 1465 l0 -445 265 0 265 0 0 445 0 445 -265 0 -265 0 0 -445z
m234 159 c20 -20 20 -48 1 -64 -24 -20 -19 -48 10 -52 35 -4 36 -22 3 -26 -24
-3 -28 -8 -28 -33 0 -28 2 -29 48 -29 53 0 64 -5 81 -38 9 -16 18 -21 32 -17
25 8 25 -11 0 -25 -16 -8 -24 -5 -44 22 l-25 31 -17 -32 c-32 -64 -115 -73
-160 -19 -44 52 -23 134 41 158 27 11 32 41 9 60 -20 17 -19 57 3 69 23 14 28
14 46 -5z"/>
<path d="M5120 1460 c-30 -30 -27 -83 6 -109 15 -12 34 -21 44 -21 20 0 70 37
70 51 0 5 -18 9 -40 9 l-40 0 0 45 c0 49 -10 55 -40 25z"/>
<path d="M900 445 l0 -445 265 0 265 0 0 445 0 445 -265 0 -265 0 0 -445z"/>
<path d="M1480 445 l0 -445 265 0 265 0 0 445 0 445 -265 0 -265 0 0 -445z"/>
<path d="M2060 445 l0 -445 265 0 265 0 0 445 0 445 -265 0 -265 0 0 -445z"/>
<path d="M2640 445 l0 -445 265 0 265 0 0 445 0 445 -265 0 -265 0 0 -445z"/>
<path d="M3220 445 l0 -445 265 0 265 0 0 445 0 445 -265 0 -265 0 0 -445z"/>
<path d="M3800 445 l0 -445 265 0 265 0 0 445 0 445 -265 0 -265 0 0 -445z"/>
<path d="M4380 445 l0 -445 265 0 265 0 0 445 0 445 -265 0 -265 0 0 -445z
m234 159 c20 -20 20 -48 1 -64 -24 -20 -19 -48 10 -52 35 -4 36 -22 3 -26 -24
-3 -28 -8 -28 -33 0 -28 2 -29 48 -29 53 0 64 -5 81 -38 9 -16 18 -21 32 -17
25 8 25 -11 0 -25 -16 -8 -24 -5 -44 22 l-25 31 -17 -32 c-32 -64 -115 -73
-160 -19 -44 52 -23 134 41 158 27 11 32 41 9 60 -20 17 -19 57 3 69 23 14 28
14 46 -5z"/>
<path d="M4540 440 c-30 -30 -27 -83 6 -109 34 -26 54 -26 88 0 36 29 33 39
-14 39 l-40 0 0 45 c0 49 -10 55 -40 25z"/>
</g>
</svg>
