<?xml version="1.0" standalone="no"?>
<!DOCTYPE svg PUBLIC "-//W3C//DTD SVG 20010904//EN"
 "http://www.w3.org/TR/2001/REC-SVG-20010904/DTD/svg10.dtd">
<svg version="1.0" xmlns="http://www.w3.org/2000/svg"
 width="575.000000pt" height="294.000000pt" viewBox="0 0 575.000000 294.000000"
 preserveAspectRatio="xMidYMid meet">

<g transform="translate(0.000000,294.000000) scale(0.100000,-0.100000)"
fill="#ffffff" stroke="none">
<path d="M0 2495 l0 -445 265 0 265 0 0 445 0 445 -265 0 -265 0 0 -445z"/>
<path d="M580 2495 l0 -445 265 0 265 0 0 445 0 445 -265 0 -265 0 0 -445z"/>
<path d="M1160 2495 l0 -445 265 0 265 0 0 445 0 445 -265 0 -265 0 0 -445z"/>
<path d="M1740 2495 l0 -445 265 0 265 0 0 445 0 445 -265 0 -265 0 0 -445z"/>
<path d="M2320 2495 l0 -445 265 0 265 0 0 445 0 445 -265 0 -265 0 0 -445z"/>
<path d="M2900 2495 l0 -445 265 0 265 0 0 445 0 445 -265 0 -265 0 0 -445z"/>
<path d="M3480 2495 l0 -445 265 0 265 0 0 445 0 445 -265 0 -265 0 0 -445z"/>
<path d="M4060 2495 l0 -445 265 0 265 0 0 445 0 445 -265 0 -265 0 0 -445z"/>
<path d="M4640 2495 l0 -445 265 0 265 0 0 445 0 445 -265 0 -265 0 0 -445z"/>
<path d="M5220 2495 l0 -445 265 0 265 0 0 445 0 445 -265 0 -265 0 0 -445z"/>
<path d="M320 1465 l0 -445 265 0 265 0 0 445 0 445 -265 0 -265 0 0 -445z"/>
<path d="M900 1465 l0 -445 265 0 265 0 0 445 0 445 -265 0 -265 0 0 -445z"/>
<path d="M1480 1465 l0 -445 265 0 265 0 0 445 0 445 -265 0 -265 0 0 -445z"/>
<path d="M2060 1465 l0 -445 265 0 265 0 0 445 0 445 -265 0 -265 0 0 -445z"/>
<path d="M2640 1465 l0 -445 265 0 265 0 0 445 0 445 -265 0 -265 0 0 -445z"/>
<path d="M3220 1465 l0 -445 265 0 265 0 0 445 0 445 -265 0 -265 0 0 -445z"/>
<path d="M3800 1465 l0 -445 265 0 265 0 0 445 0 445 -265 0 -265 0 0 -445z"/>
<path d="M4380 1465 l0 -445 265 0 265 0 0 445 0 445 -265 0 -265 0 0 -445z"/>
<path d="M4960 1465 l0 -445 265 0 265 0 0 445 0 445 -265 0 -265 0 0 -445z"/>
<path d="M900 445 l0 -445 265 0 265 0 0 445 0 445 -265 0 -265 0 0 -445z"/>
<path d="M1480 445 l0 -445 265 0 265 0 0 445 0 445 -265 0 -265 0 0 -445z"/>
<path d="M2060 445 l0 -445 265 0 265 0 0 445 0 445 -265 0 -265 0 0 -445z"/>
<path d="M2640 445 l0 -445 265 0 265 0 0 445 0 445 -265 0 -265 0 0 -445z"/>
<path d="M3220 445 l0 -445 265 0 265 0 0 445 0 445 -265 0 -265 0 0 -445z"/>
<path d="M3800 445 l0 -445 265 0 265 0 0 445 0 445 -265 0 -265 0 0 -445z"/>
<path d="M4380 445 l0 -445 265 0 265 0 0 445 0 445 -265 0 -265 0 0 -445z"/>
</g>
</svg>
